<mxfile host="app.diagrams.net" agent="Mozilla/5.0 (Windows NT 10.0; Win64; x64) AppleWebKit/537.36 (KHTML, like Gecko) Chrome/132.0.0.0 Safari/537.36 Edg/132.0.0.0" version="26.1.0">
  <diagram name="Seite-1" id="ziA6cfnl-7anwDXJS1_m">
    <mxGraphModel dx="1252" dy="476" grid="1" gridSize="10" guides="1" tooltips="1" connect="1" arrows="1" fold="1" page="1" pageScale="1" pageWidth="827" pageHeight="1169" math="0" shadow="0">
      <root>
        <mxCell id="0" />
        <mxCell id="1" parent="0" />
        <mxCell id="_3O-dLj9MWaLNkhvjviS-77" value="" style="ellipse;shape=cloud;whiteSpace=wrap;html=1;" vertex="1" parent="1">
          <mxGeometry x="627.5" y="230" width="205" height="147.5" as="geometry" />
        </mxCell>
        <mxCell id="_3O-dLj9MWaLNkhvjviS-2" value="" style="shape=cylinder3;whiteSpace=wrap;html=1;boundedLbl=1;backgroundOutline=1;size=15;" vertex="1" parent="1">
          <mxGeometry x="710" y="265" width="40" height="60" as="geometry" />
        </mxCell>
        <mxCell id="_3O-dLj9MWaLNkhvjviS-3" value="MBOT" style="shape=image;html=1;verticalAlign=top;verticalLabelPosition=bottom;labelBackgroundColor=#ffffff;imageAspect=0;aspect=fixed;image=https://cdn1.iconfinder.com/data/icons/unicons-line-vol-5/24/robot-128.png" vertex="1" parent="1">
          <mxGeometry x="430" y="450" width="60" height="60" as="geometry" />
        </mxCell>
        <mxCell id="_3O-dLj9MWaLNkhvjviS-4" value="Micropython-Script" style="rounded=0;whiteSpace=wrap;html=1;" vertex="1" parent="1">
          <mxGeometry x="400" y="420" width="120" height="30" as="geometry" />
        </mxCell>
        <mxCell id="_3O-dLj9MWaLNkhvjviS-6" value="" style="rounded=0;whiteSpace=wrap;html=1;" vertex="1" parent="1">
          <mxGeometry x="315" y="260" width="285" height="110" as="geometry" />
        </mxCell>
        <mxCell id="_3O-dLj9MWaLNkhvjviS-7" value="MBOT-Bridge.py" style="rounded=0;whiteSpace=wrap;html=1;" vertex="1" parent="1">
          <mxGeometry x="360" y="320" width="200" height="30" as="geometry" />
        </mxCell>
        <mxCell id="_3O-dLj9MWaLNkhvjviS-8" value="DB-Bridge.py" style="rounded=0;whiteSpace=wrap;html=1;" vertex="1" parent="1">
          <mxGeometry x="360" y="280" width="200" height="30" as="geometry" />
        </mxCell>
        <mxCell id="_3O-dLj9MWaLNkhvjviS-16" style="edgeStyle=orthogonalEdgeStyle;rounded=0;orthogonalLoop=1;jettySize=auto;html=1;exitX=1;exitY=0.5;exitDx=0;exitDy=0;entryX=0;entryY=0.5;entryDx=0;entryDy=0;" edge="1" parent="1" source="_3O-dLj9MWaLNkhvjviS-9" target="_3O-dLj9MWaLNkhvjviS-6">
          <mxGeometry relative="1" as="geometry">
            <mxPoint x="310" y="310" as="targetPoint" />
          </mxGeometry>
        </mxCell>
        <mxCell id="_3O-dLj9MWaLNkhvjviS-9" value="MAIN.py" style="whiteSpace=wrap;html=1;aspect=fixed;fontStyle=1" vertex="1" parent="1">
          <mxGeometry x="130" y="275" width="80" height="80" as="geometry" />
        </mxCell>
        <mxCell id="_3O-dLj9MWaLNkhvjviS-10" value="&lt;b&gt;FRONTEND&lt;/b&gt;" style="rounded=0;whiteSpace=wrap;html=1;" vertex="1" parent="1">
          <mxGeometry x="312.5" y="100" width="290" height="60" as="geometry" />
        </mxCell>
        <mxCell id="_3O-dLj9MWaLNkhvjviS-52" style="edgeStyle=orthogonalEdgeStyle;rounded=0;orthogonalLoop=1;jettySize=auto;html=1;exitX=0.25;exitY=0;exitDx=0;exitDy=0;entryX=0.25;entryY=1;entryDx=0;entryDy=0;" edge="1" parent="1" source="_3O-dLj9MWaLNkhvjviS-12" target="_3O-dLj9MWaLNkhvjviS-10">
          <mxGeometry relative="1" as="geometry" />
        </mxCell>
        <mxCell id="_3O-dLj9MWaLNkhvjviS-12" value="FRONTEND-Bridge.py" style="rounded=0;whiteSpace=wrap;html=1;fontStyle=1" vertex="1" parent="1">
          <mxGeometry x="390" y="250" width="140" height="20" as="geometry" />
        </mxCell>
        <mxCell id="_3O-dLj9MWaLNkhvjviS-27" value="" style="endArrow=classic;startArrow=classic;html=1;rounded=0;entryX=0;entryY=0.5;entryDx=0;entryDy=0;entryPerimeter=0;exitX=1;exitY=0.5;exitDx=0;exitDy=0;" edge="1" parent="1" source="_3O-dLj9MWaLNkhvjviS-8" target="_3O-dLj9MWaLNkhvjviS-2">
          <mxGeometry width="50" height="50" relative="1" as="geometry">
            <mxPoint x="610" y="350" as="sourcePoint" />
            <mxPoint x="660" y="300" as="targetPoint" />
          </mxGeometry>
        </mxCell>
        <mxCell id="_3O-dLj9MWaLNkhvjviS-28" value="" style="endArrow=classic;startArrow=classic;html=1;rounded=0;entryX=0.5;entryY=1;entryDx=0;entryDy=0;exitX=0.5;exitY=0;exitDx=0;exitDy=0;" edge="1" parent="1" source="_3O-dLj9MWaLNkhvjviS-4" target="_3O-dLj9MWaLNkhvjviS-7">
          <mxGeometry width="50" height="50" relative="1" as="geometry">
            <mxPoint x="510" y="430" as="sourcePoint" />
            <mxPoint x="560" y="380" as="targetPoint" />
          </mxGeometry>
        </mxCell>
        <mxCell id="_3O-dLj9MWaLNkhvjviS-32" value="UDP-Connection" style="edgeLabel;html=1;align=center;verticalAlign=middle;resizable=0;points=[];fontStyle=2" vertex="1" connectable="0" parent="_3O-dLj9MWaLNkhvjviS-28">
          <mxGeometry x="0.0794" y="2" relative="1" as="geometry">
            <mxPoint x="1" y="6" as="offset" />
          </mxGeometry>
        </mxCell>
        <mxCell id="_3O-dLj9MWaLNkhvjviS-33" value="&lt;b&gt;MongoDB&lt;/b&gt;" style="rounded=0;whiteSpace=wrap;html=1;strokeColor=none;" vertex="1" parent="1">
          <mxGeometry x="690" y="325" width="80" height="20" as="geometry" />
        </mxCell>
        <mxCell id="_3O-dLj9MWaLNkhvjviS-34" value="Read / Write" style="edgeLabel;html=1;align=center;verticalAlign=middle;resizable=0;points=[];fontStyle=2" vertex="1" connectable="0" parent="1">
          <mxGeometry x="640" y="295" as="geometry" />
        </mxCell>
        <mxCell id="_3O-dLj9MWaLNkhvjviS-51" style="edgeStyle=orthogonalEdgeStyle;rounded=0;orthogonalLoop=1;jettySize=auto;html=1;exitX=0.75;exitY=1;exitDx=0;exitDy=0;entryX=0.686;entryY=0.108;entryDx=0;entryDy=0;entryPerimeter=0;" edge="1" parent="1" source="_3O-dLj9MWaLNkhvjviS-10" target="_3O-dLj9MWaLNkhvjviS-12">
          <mxGeometry relative="1" as="geometry" />
        </mxCell>
        <mxCell id="_3O-dLj9MWaLNkhvjviS-53" value="POST" style="edgeLabel;html=1;align=center;verticalAlign=middle;resizable=0;points=[];fontStyle=2" vertex="1" connectable="0" parent="_3O-dLj9MWaLNkhvjviS-51">
          <mxGeometry x="-0.1561" relative="1" as="geometry">
            <mxPoint x="14" y="-25" as="offset" />
          </mxGeometry>
        </mxCell>
        <mxCell id="_3O-dLj9MWaLNkhvjviS-54" value="GET" style="edgeLabel;html=1;align=center;verticalAlign=middle;resizable=0;points=[];fontStyle=2" vertex="1" connectable="0" parent="1">
          <mxGeometry x="430.0033333333333" y="230" as="geometry" />
        </mxCell>
        <mxCell id="_3O-dLj9MWaLNkhvjviS-64" value="" style="endArrow=none;dashed=1;html=1;rounded=0;" edge="1" parent="1">
          <mxGeometry width="50" height="50" relative="1" as="geometry">
            <mxPoint x="570" y="460" as="sourcePoint" />
            <mxPoint x="570" y="370" as="targetPoint" />
          </mxGeometry>
        </mxCell>
        <mxCell id="_3O-dLj9MWaLNkhvjviS-65" value="" style="endArrow=none;dashed=1;html=1;rounded=0;" edge="1" parent="1">
          <mxGeometry width="50" height="50" relative="1" as="geometry">
            <mxPoint x="680" y="460" as="sourcePoint" />
            <mxPoint x="570" y="460" as="targetPoint" />
          </mxGeometry>
        </mxCell>
        <mxCell id="_3O-dLj9MWaLNkhvjviS-66" value="UNIT-Tests.py" style="shape=process;whiteSpace=wrap;html=1;backgroundOutline=1;" vertex="1" parent="1">
          <mxGeometry x="680" y="430" width="120" height="60" as="geometry" />
        </mxCell>
        <mxCell id="_3O-dLj9MWaLNkhvjviS-69" value="Flask-API&amp;nbsp; &amp;nbsp;" style="shape=dataStorage;whiteSpace=wrap;html=1;fixedSize=1;" vertex="1" parent="1">
          <mxGeometry x="210" y="170" width="100" height="80" as="geometry" />
        </mxCell>
        <mxCell id="_3O-dLj9MWaLNkhvjviS-73" value="&lt;i&gt;/ receive_commands&lt;/i&gt;" style="text;html=1;align=center;verticalAlign=middle;whiteSpace=wrap;rounded=0;" vertex="1" parent="1">
          <mxGeometry x="560" y="170" width="120" height="30" as="geometry" />
        </mxCell>
        <mxCell id="_3O-dLj9MWaLNkhvjviS-74" value="&lt;i&gt;/ save_log&lt;/i&gt;" style="text;html=1;align=center;verticalAlign=middle;whiteSpace=wrap;rounded=0;" vertex="1" parent="1">
          <mxGeometry x="530" y="190" width="120" height="30" as="geometry" />
        </mxCell>
        <mxCell id="_3O-dLj9MWaLNkhvjviS-75" value="&lt;i&gt;/ get_status&lt;/i&gt;" style="text;html=1;align=center;verticalAlign=middle;whiteSpace=wrap;rounded=0;" vertex="1" parent="1">
          <mxGeometry x="280" y="180" width="120" height="30" as="geometry" />
        </mxCell>
        <mxCell id="_3O-dLj9MWaLNkhvjviS-78" value="TARGET-PORT: 6666&lt;div&gt;SOURCE-PORT: 5555&lt;/div&gt;" style="text;html=1;align=center;verticalAlign=middle;whiteSpace=wrap;rounded=0;fontStyle=2;fontSize=10;" vertex="1" parent="1">
          <mxGeometry x="274" y="380" width="140" height="22.5" as="geometry" />
        </mxCell>
      </root>
    </mxGraphModel>
  </diagram>
</mxfile>
